<?xml version="1.0" encoding="UTF-8" standalone="no"?>
<!DOCTYPE svg PUBLIC "-//W3C//DTD SVG 1.1//EN"
 "http://www.w3.org/Graphics/SVG/1.1/DTD/svg11.dtd">
<!-- Generated by graphviz version 2.38.0 (20140413.2041)
 -->
<!-- Title: IControl Pages: 1 -->
<svg width="400pt" height="1560pt"
 viewBox="0.00 0.00 400.00 1560.00" xmlns="http://www.w3.org/2000/svg" xmlns:xlink="http://www.w3.org/1999/xlink">
<g id="graph0" class="graph" transform="scale(1 1) rotate(0) translate(4 1556)">
<title>IControl</title>
<polygon fill="white" stroke="none" points="-4,4 -4,-1556 396,-1556 396,4 -4,4"/>
<!-- Node1 -->
<g id="node1" class="node"><title>Node1</title>
<polygon fill="#bfbfbf" stroke="black" points="0,-772.5 0,-791.5 53,-791.5 53,-772.5 0,-772.5"/>
<text text-anchor="middle" x="26.5" y="-779.5" font-family="Helvetica,sans-Serif" font-size="10.00">IControl</text>
</g>
<!-- Node2 -->
<g id="node2" class="node"><title>Node2</title>
<g id="a_node2"><a xlink:href="class_g_f_x_label_control.html" target="_top" xlink:title="Control to display the graphics backend. ">
<polygon fill="white" stroke="black" points="116,-1532.5 116,-1551.5 211,-1551.5 211,-1532.5 116,-1532.5"/>
<text text-anchor="middle" x="163.5" y="-1539.5" font-family="Helvetica,sans-Serif" font-size="10.00">GFXLabelControl</text>
</a>
</g>
</g>
<!-- Node1&#45;&gt;Node2 -->
<g id="edge1" class="edge"><title>Node1&#45;&gt;Node2</title>
<path fill="none" stroke="midnightblue" d="M27.7972,-801.818C29.6547,-913.992 41.1925,-1466.28 89,-1523 95.7951,-1531.06 105.521,-1535.94 115.682,-1538.84"/>
<polygon fill="midnightblue" stroke="midnightblue" points="31.2935,-801.547 27.6352,-791.604 24.2944,-801.658 31.2935,-801.547"/>
</g>
<!-- Node3 -->
<g id="node3" class="node"><title>Node3</title>
<g id="a_node3"><a xlink:href="class_i_bitmap_control.html" target="_top" xlink:title="A basic control to draw a bitmap, or one frame of a stacked bitmap depending on the current value...">
<polygon fill="white" stroke="black" points="119.5,-1494.5 119.5,-1513.5 207.5,-1513.5 207.5,-1494.5 119.5,-1494.5"/>
<text text-anchor="middle" x="163.5" y="-1501.5" font-family="Helvetica,sans-Serif" font-size="10.00">IBitmapControl</text>
</a>
</g>
</g>
<!-- Node1&#45;&gt;Node3 -->
<g id="edge2" class="edge"><title>Node1&#45;&gt;Node3</title>
<path fill="none" stroke="midnightblue" d="M27.891,-801.809C30.2109,-910.494 43.6486,-1431.43 89,-1485 96.5795,-1493.95 107.773,-1498.98 119.15,-1501.72"/>
<polygon fill="midnightblue" stroke="midnightblue" points="31.3863,-801.539 27.6807,-791.613 24.3878,-801.684 31.3863,-801.539"/>
</g>
<!-- Node4 -->
<g id="node4" class="node"><title>Node4</title>
<g id="a_node4"><a xlink:href="class_i_bubble_control.html" target="_top" xlink:title="A special control to draw contextual info as a slider etc is moved If used in the main IControl stack...">
<polygon fill="white" stroke="black" points="120.5,-1456.5 120.5,-1475.5 206.5,-1475.5 206.5,-1456.5 120.5,-1456.5"/>
<text text-anchor="middle" x="163.5" y="-1463.5" font-family="Helvetica,sans-Serif" font-size="10.00">IBubbleControl</text>
</a>
</g>
</g>
<!-- Node1&#45;&gt;Node4 -->
<g id="edge3" class="edge"><title>Node1&#45;&gt;Node4</title>
<path fill="none" stroke="midnightblue" d="M27.993,-801.714C30.7901,-906.632 46.0894,-1396.57 89,-1447 96.858,-1456.23 108.561,-1461.29 120.33,-1463.97"/>
<polygon fill="midnightblue" stroke="midnightblue" points="31.4884,-801.487 27.7303,-791.581 24.4907,-801.668 31.4884,-801.487"/>
</g>
<!-- Node5 -->
<g id="node5" class="node"><title>Node5</title>
<g id="a_node5"><a xlink:href="class_i_button_control_base.html" target="_top" xlink:title="A base class for buttons/momentary switches &#45; cannot be linked to parameters. ">
<polygon fill="white" stroke="black" points="108.5,-1418.5 108.5,-1437.5 218.5,-1437.5 218.5,-1418.5 108.5,-1418.5"/>
<text text-anchor="middle" x="163.5" y="-1425.5" font-family="Helvetica,sans-Serif" font-size="10.00">IButtonControlBase</text>
</a>
</g>
</g>
<!-- Node1&#45;&gt;Node5 -->
<g id="edge4" class="edge"><title>Node1&#45;&gt;Node5</title>
<path fill="none" stroke="midnightblue" d="M28.1034,-801.527C31.3921,-902.409 48.5148,-1361.69 89,-1409 94.1415,-1415.01 100.91,-1419.24 108.261,-1422.21"/>
<polygon fill="midnightblue" stroke="midnightblue" points="31.6008,-801.388 27.7843,-791.504 24.6044,-801.611 31.6008,-801.388"/>
</g>
<!-- Node9 -->
<g id="node9" class="node"><title>Node9</title>
<g id="a_node9"><a xlink:href="class_i_color_picker_control.html" target="_top" xlink:title="A control for choosing a color. ">
<polygon fill="white" stroke="black" points="110,-1380.5 110,-1399.5 217,-1399.5 217,-1380.5 110,-1380.5"/>
<text text-anchor="middle" x="163.5" y="-1387.5" font-family="Helvetica,sans-Serif" font-size="10.00">IColorPickerControl</text>
</a>
</g>
</g>
<!-- Node1&#45;&gt;Node9 -->
<g id="edge8" class="edge"><title>Node1&#45;&gt;Node9</title>
<path fill="none" stroke="midnightblue" d="M28.2468,-801.864C32.0966,-899.642 51.0053,-1326.88 89,-1371 94.5043,-1377.39 101.85,-1381.78 109.773,-1384.75"/>
<polygon fill="midnightblue" stroke="midnightblue" points="31.7432,-801.701 27.8601,-791.844 24.7484,-801.971 31.7432,-801.701"/>
</g>
<!-- Node10 -->
<g id="node10" class="node"><title>Node10</title>
<g id="a_node10"><a xlink:href="class_i_corner_resizer_control.html" target="_top" xlink:title="A control for resizing the plug&#45;in window by clicking and dragging in the bottom right&#45;hand corner Th...">
<polygon fill="white" stroke="black" points="104,-1342.5 104,-1361.5 223,-1361.5 223,-1342.5 104,-1342.5"/>
<text text-anchor="middle" x="163.5" y="-1349.5" font-family="Helvetica,sans-Serif" font-size="10.00">ICornerResizerControl</text>
</a>
</g>
</g>
<!-- Node1&#45;&gt;Node10 -->
<g id="edge9" class="edge"><title>Node1&#45;&gt;Node10</title>
<path fill="none" stroke="midnightblue" d="M28.3915,-801.741C32.7926,-895.385 53.4307,-1291.99 89,-1333 93.1452,-1337.78 98.32,-1341.43 103.992,-1344.22"/>
<polygon fill="midnightblue" stroke="midnightblue" points="31.8833,-801.48 27.9256,-791.653 24.8907,-801.803 31.8833,-801.48"/>
</g>
<!-- Node11 -->
<g id="node11" class="node"><title>Node11</title>
<g id="a_node11"><a xlink:href="class_i_dir_browse_control_base.html" target="_top" xlink:title="An abstract IControl base class that you can inherit from in order to make a control that pops up a m...">
<polygon fill="white" stroke="black" points="101,-1304.5 101,-1323.5 226,-1323.5 226,-1304.5 101,-1304.5"/>
<text text-anchor="middle" x="163.5" y="-1311.5" font-family="Helvetica,sans-Serif" font-size="10.00">IDirBrowseControlBase</text>
</a>
</g>
</g>
<!-- Node1&#45;&gt;Node11 -->
<g id="edge10" class="edge"><title>Node1&#45;&gt;Node11</title>
<path fill="none" stroke="midnightblue" d="M28.5808,-802.06C33.6124,-892.216 55.906,-1257.16 89,-1295 92.3838,-1298.87 96.4425,-1302 100.892,-1304.53"/>
<polygon fill="midnightblue" stroke="midnightblue" points="32.0626,-801.632 28.0192,-791.84 25.0732,-802.017 32.0626,-801.632"/>
</g>
<!-- Node13 -->
<g id="node13" class="node"><title>Node13</title>
<g id="a_node13"><a xlink:href="class_i_f_p_s_display_control.html" target="_top" xlink:title="Performance display meter, based on code from NanoVG This is a special control that lives outside the...">
<polygon fill="white" stroke="black" points="110.5,-1266.5 110.5,-1285.5 216.5,-1285.5 216.5,-1266.5 110.5,-1266.5"/>
<text text-anchor="middle" x="163.5" y="-1273.5" font-family="Helvetica,sans-Serif" font-size="10.00">IFPSDisplayControl</text>
</a>
</g>
</g>
<!-- Node1&#45;&gt;Node13 -->
<g id="edge12" class="edge"><title>Node1&#45;&gt;Node13</title>
<path fill="none" stroke="midnightblue" d="M27.2253,-802.207C26.536,-883.826 28.151,-1188.08 89,-1257 94.6701,-1263.42 102.199,-1267.81 110.278,-1270.78"/>
<polygon fill="midnightblue" stroke="midnightblue" points="30.729,-801.872 27.3369,-791.835 23.7294,-801.797 30.729,-801.872"/>
</g>
<!-- Node14 -->
<g id="node14" class="node"><title>Node14</title>
<g id="a_node14"><a xlink:href="class_i_graphics_live_edit.html" target="_top" xlink:title="A control to enable live modification of control layout in an IGraphics context in debug builds This ...">
<polygon fill="white" stroke="black" points="114.5,-1228.5 114.5,-1247.5 212.5,-1247.5 212.5,-1228.5 114.5,-1228.5"/>
<text text-anchor="middle" x="163.5" y="-1235.5" font-family="Helvetica,sans-Serif" font-size="10.00">IGraphicsLiveEdit</text>
</a>
</g>
</g>
<!-- Node1&#45;&gt;Node14 -->
<g id="edge13" class="edge"><title>Node1&#45;&gt;Node14</title>
<path fill="none" stroke="midnightblue" d="M27.4779,-802.059C27.8077,-879.287 32.9433,-1156.21 89,-1219 95.671,-1226.47 104.859,-1231.18 114.482,-1234.11"/>
<polygon fill="midnightblue" stroke="midnightblue" points="30.9775,-801.794 27.4589,-791.8 23.9775,-801.807 30.9775,-801.794"/>
</g>
<!-- Node15 -->
<g id="node15" class="node"><title>Node15</title>
<g id="a_node15"><a xlink:href="class_i_knob_control_base.html" target="_top" xlink:title="A base class for knob/dial controls, to handle mouse action and Sender. ">
<polygon fill="white" stroke="red" points="113,-1190.5 113,-1209.5 214,-1209.5 214,-1190.5 113,-1190.5"/>
<text text-anchor="middle" x="163.5" y="-1197.5" font-family="Helvetica,sans-Serif" font-size="10.00">IKnobControlBase</text>
</a>
</g>
</g>
<!-- Node1&#45;&gt;Node15 -->
<g id="edge14" class="edge"><title>Node1&#45;&gt;Node15</title>
<path fill="none" stroke="midnightblue" d="M27.7689,-801.7C29.1621,-874.109 37.6723,-1124.26 89,-1181 95.2778,-1187.94 103.727,-1192.49 112.66,-1195.45"/>
<polygon fill="midnightblue" stroke="midnightblue" points="31.2679,-801.601 27.601,-791.661 24.2688,-801.719 31.2679,-801.601"/>
</g>
<!-- Node19 -->
<g id="node19" class="node"><title>Node19</title>
<g id="a_node19"><a xlink:href="class_i_lambda_control.html" target="_top" xlink:title="A control that can be specialised with a lambda function, for quick experiments without making a cust...">
<polygon fill="white" stroke="black" points="117.5,-1152.5 117.5,-1171.5 209.5,-1171.5 209.5,-1152.5 117.5,-1152.5"/>
<text text-anchor="middle" x="163.5" y="-1159.5" font-family="Helvetica,sans-Serif" font-size="10.00">ILambdaControl</text>
</a>
</g>
</g>
<!-- Node1&#45;&gt;Node19 -->
<g id="edge18" class="edge"><title>Node1&#45;&gt;Node19</title>
<path fill="none" stroke="midnightblue" d="M28.1319,-801.98C30.6966,-870.193 42.5344,-1092.45 89,-1143 96.4027,-1151.05 106.731,-1155.88 117.311,-1158.73"/>
<polygon fill="midnightblue" stroke="midnightblue" points="31.6216,-801.623 27.7749,-791.751 24.6259,-801.867 31.6216,-801.623"/>
</g>
<!-- Node20 -->
<g id="node20" class="node"><title>Node20</title>
<g id="a_node20"><a xlink:href="class_i_panel_control.html" target="_top" xlink:title="A basic control to fill a rectangle with a color or gradient. ">
<polygon fill="white" stroke="black" points="124,-1114.5 124,-1133.5 203,-1133.5 203,-1114.5 124,-1114.5"/>
<text text-anchor="middle" x="163.5" y="-1121.5" font-family="Helvetica,sans-Serif" font-size="10.00">IPanelControl</text>
</a>
</g>
</g>
<!-- Node1&#45;&gt;Node20 -->
<g id="edge19" class="edge"><title>Node1&#45;&gt;Node20</title>
<path fill="none" stroke="midnightblue" d="M28.5662,-801.897C32.3613,-865.217 47.291,-1060.5 89,-1105 98.0127,-1114.62 111.199,-1119.62 123.924,-1122.15"/>
<polygon fill="midnightblue" stroke="midnightblue" points="32.047,-801.46 27.9832,-791.676 25.0584,-801.859 32.047,-801.46"/>
</g>
<!-- Node21 -->
<g id="node21" class="node"><title>Node21</title>
<g id="a_node21"><a xlink:href="class_i_popup_menu_control.html" target="_top" xlink:title="A base control for a pop&#45;up menu/drop&#45;down list that stays within the bounds of the IGraphics context...">
<polygon fill="white" stroke="black" points="108.5,-1076.5 108.5,-1095.5 218.5,-1095.5 218.5,-1076.5 108.5,-1076.5"/>
<text text-anchor="middle" x="163.5" y="-1083.5" font-family="Helvetica,sans-Serif" font-size="10.00">IPopupMenuControl</text>
</a>
</g>
</g>
<!-- Node1&#45;&gt;Node21 -->
<g id="edge20" class="edge"><title>Node1&#45;&gt;Node21</title>
<path fill="none" stroke="midnightblue" d="M29.1085,-801.804C34.2271,-859.948 52.0211,-1028.49 89,-1067 94.3863,-1072.61 101.194,-1076.64 108.481,-1079.53"/>
<polygon fill="midnightblue" stroke="midnightblue" points="32.5857,-801.386 28.2519,-791.719 25.6108,-801.979 32.5857,-801.386"/>
</g>
<!-- Node22 -->
<g id="node22" class="node"><title>Node22</title>
<g id="a_node22"><a xlink:href="class_i_slider_control_base.html" target="_top" xlink:title="A base class for slider/fader controls, to handle mouse action and Sender. ">
<polygon fill="white" stroke="red" points="111.5,-1038.5 111.5,-1057.5 215.5,-1057.5 215.5,-1038.5 111.5,-1038.5"/>
<text text-anchor="middle" x="163.5" y="-1045.5" font-family="Helvetica,sans-Serif" font-size="10.00">ISliderControlBase</text>
</a>
</g>
</g>
<!-- Node1&#45;&gt;Node22 -->
<g id="edge21" class="edge"><title>Node1&#45;&gt;Node22</title>
<path fill="none" stroke="midnightblue" d="M29.7864,-801.536C36.3162,-854.035 56.6858,-996.396 89,-1029 95.1234,-1035.18 102.975,-1039.43 111.256,-1042.35"/>
<polygon fill="midnightblue" stroke="midnightblue" points="33.2492,-801.017 28.5733,-791.51 26.2999,-801.858 33.2492,-801.017"/>
</g>
<!-- Node23 -->
<g id="node23" class="node"><title>Node23</title>
<g id="a_node23"><a xlink:href="class_i_s_v_g_control.html" target="_top" xlink:title="A basic control to draw an SVG image to the screen. ">
<polygon fill="white" stroke="black" points="126.5,-1000.5 126.5,-1019.5 200.5,-1019.5 200.5,-1000.5 126.5,-1000.5"/>
<text text-anchor="middle" x="163.5" y="-1007.5" font-family="Helvetica,sans-Serif" font-size="10.00">ISVGControl</text>
</a>
</g>
</g>
<!-- Node1&#45;&gt;Node23 -->
<g id="edge22" class="edge"><title>Node1&#45;&gt;Node23</title>
<path fill="none" stroke="midnightblue" d="M27.2561,-801.656C27.8621,-842.93 35.3259,-939.08 89,-991 98.9467,-1000.62 113.099,-1005.55 126.333,-1008.01"/>
<polygon fill="midnightblue" stroke="midnightblue" points="30.756,-801.545 27.2344,-791.553 23.756,-801.56 30.756,-801.545"/>
</g>
<!-- Node24 -->
<g id="node24" class="node"><title>Node24</title>
<g id="a_node24"><a xlink:href="class_i_switch_control_base.html" target="_top" xlink:title="A base class for switch controls. ">
<polygon fill="white" stroke="red" points="109.5,-962.5 109.5,-981.5 217.5,-981.5 217.5,-962.5 109.5,-962.5"/>
<text text-anchor="middle" x="163.5" y="-969.5" font-family="Helvetica,sans-Serif" font-size="10.00">ISwitchControlBase</text>
</a>
</g>
</g>
<!-- Node1&#45;&gt;Node24 -->
<g id="edge23" class="edge"><title>Node1&#45;&gt;Node24</title>
<path fill="none" stroke="midnightblue" d="M28.8013,-801.962C32.2315,-837.672 44.6118,-912.53 89,-953 94.8437,-958.328 101.986,-962.202 109.496,-965.011"/>
<polygon fill="midnightblue" stroke="midnightblue" points="32.2767,-801.517 27.9728,-791.836 25.3,-802.088 32.2767,-801.517"/>
</g>
<!-- Node25 -->
<g id="node25" class="node"><title>Node25</title>
<g id="a_node25"><a xlink:href="class_i_text_control.html" target="_top" xlink:title="A basic control to display some text. ">
<polygon fill="white" stroke="red" points="127.5,-924.5 127.5,-943.5 199.5,-943.5 199.5,-924.5 127.5,-924.5"/>
<text text-anchor="middle" x="163.5" y="-931.5" font-family="Helvetica,sans-Serif" font-size="10.00">ITextControl</text>
</a>
</g>
</g>
<!-- Node1&#45;&gt;Node25 -->
<g id="edge24" class="edge"><title>Node1&#45;&gt;Node25</title>
<path fill="none" stroke="midnightblue" d="M31.0571,-801.586C37.4023,-830.764 53.4924,-885.375 89,-915 99.7274,-923.95 114.173,-928.746 127.418,-931.293"/>
<polygon fill="midnightblue" stroke="midnightblue" points="34.483,-800.869 29.0821,-791.755 27.6201,-802.248 34.483,-800.869"/>
</g>
<!-- Node26 -->
<g id="node26" class="node"><title>Node26</title>
<g id="a_node26"><a xlink:href="class_i_text_entry_control.html" target="_top" xlink:title="A Text entry widget drawn by IGraphics. ">
<polygon fill="white" stroke="black" points="115,-886.5 115,-905.5 212,-905.5 212,-886.5 115,-886.5"/>
<text text-anchor="middle" x="163.5" y="-893.5" font-family="Helvetica,sans-Serif" font-size="10.00">ITextEntryControl</text>
</a>
</g>
</g>
<!-- Node1&#45;&gt;Node26 -->
<g id="edge25" class="edge"><title>Node1&#45;&gt;Node26</title>
<path fill="none" stroke="midnightblue" d="M34.8837,-801.28C44.1972,-822.992 62.2919,-857.746 89,-877 96.5908,-882.472 105.625,-886.371 114.717,-889.147"/>
<polygon fill="midnightblue" stroke="midnightblue" points="38.0332,-799.734 31.0177,-791.795 31.5509,-802.376 38.0332,-799.734"/>
</g>
<!-- Node27 -->
<g id="node27" class="node"><title>Node27</title>
<g id="a_node27"><a xlink:href="class_i_v_display_control.html" target="_top" xlink:title="IVDisplayControl">
<polygon fill="white" stroke="black" points="116,-848.5 116,-867.5 211,-867.5 211,-848.5 116,-848.5"/>
<text text-anchor="middle" x="163.5" y="-855.5" font-family="Helvetica,sans-Serif" font-size="10.00">IVDisplayControl</text>
</a>
</g>
</g>
<!-- Node1&#45;&gt;Node27 -->
<g id="edge26" class="edge"><title>Node1&#45;&gt;Node27</title>
<path fill="none" stroke="midnightblue" d="M41.8621,-799.311C53.3562,-812.08 70.5573,-828.92 89,-839 97.2112,-843.488 106.521,-846.948 115.689,-849.605"/>
<polygon fill="midnightblue" stroke="midnightblue" points="44.379,-796.872 35.1772,-791.62 39.0956,-801.464 44.379,-796.872"/>
</g>
<!-- Node28 -->
<g id="node28" class="node"><title>Node28</title>
<g id="a_node28"><a xlink:href="class_i_v_group_control.html" target="_top" xlink:title="IVGroupControl">
<polygon fill="white" stroke="black" points="119,-810.5 119,-829.5 208,-829.5 208,-810.5 119,-810.5"/>
<text text-anchor="middle" x="163.5" y="-817.5" font-family="Helvetica,sans-Serif" font-size="10.00">IVGroupControl</text>
</a>
</g>
</g>
<!-- Node1&#45;&gt;Node28 -->
<g id="edge27" class="edge"><title>Node1&#45;&gt;Node28</title>
<path fill="none" stroke="midnightblue" d="M62.8438,-793.228C71.3841,-795.856 80.4999,-798.59 89,-801 100.412,-804.236 112.884,-807.545 124.261,-810.476"/>
<polygon fill="midnightblue" stroke="midnightblue" points="63.742,-789.843 53.1539,-790.219 61.6655,-796.528 63.742,-789.843"/>
</g>
<!-- Node29 -->
<g id="node29" class="node"><title>Node29</title>
<g id="a_node29"><a xlink:href="class_i_v_keyboard_control.html" target="_top" xlink:title="Vectorial keyboard control. ">
<polygon fill="white" stroke="black" points="111.5,-772.5 111.5,-791.5 215.5,-791.5 215.5,-772.5 111.5,-772.5"/>
<text text-anchor="middle" x="163.5" y="-779.5" font-family="Helvetica,sans-Serif" font-size="10.00">IVKeyboardControl</text>
</a>
</g>
</g>
<!-- Node1&#45;&gt;Node29 -->
<g id="edge28" class="edge"><title>Node1&#45;&gt;Node29</title>
<path fill="none" stroke="midnightblue" d="M63.4165,-782C78.1378,-782 95.4467,-782 111.443,-782"/>
<polygon fill="midnightblue" stroke="midnightblue" points="63.2103,-778.5 53.2102,-782 63.2102,-785.5 63.2103,-778.5"/>
</g>
<!-- Node30 -->
<g id="node30" class="node"><title>Node30</title>
<g id="a_node30"><a xlink:href="class_i_v_plot_control.html" target="_top" xlink:title="a vector plot to display functions and waveforms ">
<polygon fill="white" stroke="black" points="124.5,-734.5 124.5,-753.5 202.5,-753.5 202.5,-734.5 124.5,-734.5"/>
<text text-anchor="middle" x="163.5" y="-741.5" font-family="Helvetica,sans-Serif" font-size="10.00">IVPlotControl</text>
</a>
</g>
</g>
<!-- Node1&#45;&gt;Node30 -->
<g id="edge29" class="edge"><title>Node1&#45;&gt;Node30</title>
<path fill="none" stroke="midnightblue" d="M62.8438,-770.772C71.3841,-768.144 80.4999,-765.41 89,-763 100.412,-759.764 112.884,-756.455 124.261,-753.524"/>
<polygon fill="midnightblue" stroke="midnightblue" points="61.6655,-767.472 53.1539,-773.781 63.742,-774.157 61.6655,-767.472"/>
</g>
<!-- Node31 -->
<g id="node31" class="node"><title>Node31</title>
<g id="a_node31"><a xlink:href="class_i_v_scope_control.html" target="_top" xlink:title="Vectorial multichannel capable oscilloscope control. ">
<polygon fill="white" stroke="black" points="93.5,-685 93.5,-715 233.5,-715 233.5,-685 93.5,-685"/>
<text text-anchor="start" x="101.5" y="-703" font-family="Helvetica,sans-Serif" font-size="10.00">IVScopeControl&lt; MAXNC,</text>
<text text-anchor="middle" x="163.5" y="-692" font-family="Helvetica,sans-Serif" font-size="10.00"> MAXBUF, QUEUE_SIZE &gt;</text>
</a>
</g>
</g>
<!-- Node1&#45;&gt;Node31 -->
<g id="edge30" class="edge"><title>Node1&#45;&gt;Node31</title>
<path fill="none" stroke="midnightblue" d="M42.4827,-764.649C54.0887,-752.136 71.1527,-735.641 89,-725 95.3672,-721.204 102.391,-717.885 109.496,-715.013"/>
<polygon fill="midnightblue" stroke="midnightblue" points="39.7792,-762.421 35.6907,-772.195 44.9821,-767.104 39.7792,-762.421"/>
</g>
<!-- Node32 -->
<g id="node32" class="node"><title>Node32</title>
<g id="a_node32"><a xlink:href="class_i_v_track_control_base.html" target="_top" xlink:title="A base class for mult&#45;strip/track controls, such as multi&#45;sliders, meters. ">
<polygon fill="white" stroke="red" points="109.5,-646.5 109.5,-665.5 217.5,-665.5 217.5,-646.5 109.5,-646.5"/>
<text text-anchor="middle" x="163.5" y="-653.5" font-family="Helvetica,sans-Serif" font-size="10.00">IVTrackControlBase</text>
</a>
</g>
</g>
<!-- Node1&#45;&gt;Node32 -->
<g id="edge31" class="edge"><title>Node1&#45;&gt;Node32</title>
<path fill="none" stroke="midnightblue" d="M33.5632,-762.693C42.0804,-738.753 59.891,-698.377 89,-676 94.9762,-671.406 101.935,-667.866 109.142,-665.139"/>
<polygon fill="midnightblue" stroke="midnightblue" points="30.1648,-761.819 30.2967,-772.413 36.8001,-764.049 30.1648,-761.819"/>
</g>
<!-- Node33 -->
<g id="node33" class="node"><title>Node33</title>
<g id="a_node33"><a xlink:href="class_i_v_x_y_pad_control.html" target="_top" xlink:title="IVXYPadControl">
<polygon fill="white" stroke="black" points="119,-608.5 119,-627.5 208,-627.5 208,-608.5 119,-608.5"/>
<text text-anchor="middle" x="163.5" y="-615.5" font-family="Helvetica,sans-Serif" font-size="10.00">IVXYPadControl</text>
</a>
</g>
</g>
<!-- Node1&#45;&gt;Node33 -->
<g id="edge32" class="edge"><title>Node1&#45;&gt;Node33</title>
<path fill="none" stroke="midnightblue" d="M30.2815,-762.021C35.7317,-730.62 50.8127,-669.91 89,-637 97.3864,-629.772 108.183,-625.242 118.904,-622.418"/>
<polygon fill="midnightblue" stroke="midnightblue" points="26.7834,-761.735 28.6843,-772.158 33.6981,-762.825 26.7834,-761.735"/>
</g>
<!-- Node34 -->
<g id="node34" class="node"><title>Node34</title>
<g id="a_node34"><a xlink:href="class_test_animation_control.html" target="_top" xlink:title="Control to test animation. ">
<polygon fill="white" stroke="black" points="104,-570.5 104,-589.5 223,-589.5 223,-570.5 104,-570.5"/>
<text text-anchor="middle" x="163.5" y="-577.5" font-family="Helvetica,sans-Serif" font-size="10.00">TestAnimationControl</text>
</a>
</g>
</g>
<!-- Node1&#45;&gt;Node34 -->
<g id="edge33" class="edge"><title>Node1&#45;&gt;Node34</title>
<path fill="none" stroke="midnightblue" d="M28.2381,-762.234C30.7407,-724.736 41.6512,-643.09 89,-599 93.3405,-594.958 98.4261,-591.75 103.861,-589.208"/>
<polygon fill="midnightblue" stroke="midnightblue" points="24.7355,-762.192 27.7003,-772.363 31.7256,-762.563 24.7355,-762.192"/>
</g>
<!-- Node35 -->
<g id="node35" class="node"><title>Node35</title>
<g id="a_node35"><a xlink:href="class_test_bezier_control.html" target="_top" xlink:title="Control to test drawing bezier curves. ">
<polygon fill="white" stroke="black" points="113.5,-532.5 113.5,-551.5 213.5,-551.5 213.5,-532.5 113.5,-532.5"/>
<text text-anchor="middle" x="163.5" y="-539.5" font-family="Helvetica,sans-Serif" font-size="10.00">TestBezierControl</text>
</a>
</g>
</g>
<!-- Node1&#45;&gt;Node35 -->
<g id="edge34" class="edge"><title>Node1&#45;&gt;Node35</title>
<path fill="none" stroke="midnightblue" d="M26.877,-762.122C26.6661,-719.035 32.5085,-616.459 89,-561 95.6777,-554.444 104.305,-550.064 113.287,-547.156"/>
<polygon fill="midnightblue" stroke="midnightblue" points="23.382,-762.452 27.0532,-772.391 30.381,-762.332 23.382,-762.452"/>
</g>
<!-- Node36 -->
<g id="node36" class="node"><title>Node36</title>
<g id="a_node36"><a xlink:href="class_test_color_control.html" target="_top" xlink:title="Control to colors. ">
<polygon fill="white" stroke="black" points="116,-494.5 116,-513.5 211,-513.5 211,-494.5 116,-494.5"/>
<text text-anchor="middle" x="163.5" y="-501.5" font-family="Helvetica,sans-Serif" font-size="10.00">TestColorControl</text>
</a>
</g>
</g>
<!-- Node1&#45;&gt;Node36 -->
<g id="edge35" class="edge"><title>Node1&#45;&gt;Node36</title>
<path fill="none" stroke="midnightblue" d="M29.5687,-762.236C35.6587,-707.799 55.2457,-557.43 89,-523 96.1968,-515.659 105.831,-511.028 115.75,-508.136"/>
<polygon fill="midnightblue" stroke="midnightblue" points="26.0738,-762.001 28.4738,-772.32 33.0329,-762.756 26.0738,-762.001"/>
</g>
<!-- Node37 -->
<g id="node37" class="node"><title>Node37</title>
<g id="a_node37"><a xlink:href="class_test_cursor_control.html" target="_top" xlink:title="Control to test changing the platform cursor. ">
<polygon fill="white" stroke="black" points="113,-456.5 113,-475.5 214,-475.5 214,-456.5 113,-456.5"/>
<text text-anchor="middle" x="163.5" y="-463.5" font-family="Helvetica,sans-Serif" font-size="10.00">TestCursorControl</text>
</a>
</g>
</g>
<!-- Node1&#45;&gt;Node37 -->
<g id="edge36" class="edge"><title>Node1&#45;&gt;Node37</title>
<path fill="none" stroke="midnightblue" d="M28.9227,-762.171C33.6117,-702.365 50.5293,-525.395 89,-485 95.4536,-478.224 103.981,-473.745 112.936,-470.81"/>
<polygon fill="midnightblue" stroke="midnightblue" points="25.4061,-762.26 28.1452,-772.495 32.3864,-762.786 25.4061,-762.26"/>
</g>
<!-- Node38 -->
<g id="node38" class="node"><title>Node38</title>
<g id="a_node38"><a xlink:href="class_test_draw_context_control.html" target="_top" xlink:title="Control to test obtaining a drawing API (NanoVG, LICE, Cairo, AGG etc) context and using that API wit...">
<polygon fill="white" stroke="black" points="98,-418.5 98,-437.5 229,-437.5 229,-418.5 98,-418.5"/>
<text text-anchor="middle" x="163.5" y="-425.5" font-family="Helvetica,sans-Serif" font-size="10.00">TestDrawContextControl</text>
</a>
</g>
</g>
<!-- Node1&#45;&gt;Node38 -->
<g id="edge37" class="edge"><title>Node1&#45;&gt;Node38</title>
<path fill="none" stroke="midnightblue" d="M28.4122,-762.206C31.7974,-697.456 45.7625,-493.441 89,-447 92.5924,-443.141 96.8566,-440.025 101.495,-437.513"/>
<polygon fill="midnightblue" stroke="midnightblue" points="24.9114,-762.138 27.9128,-772.299 31.9028,-762.484 24.9114,-762.138"/>
</g>
<!-- Node39 -->
<g id="node39" class="node"><title>Node39</title>
<g id="a_node39"><a xlink:href="class_test_drop_shadow_control.html" target="_top" xlink:title="Control to test layer drop shadows. ">
<polygon fill="white" stroke="black" points="98,-380.5 98,-399.5 229,-399.5 229,-380.5 98,-380.5"/>
<text text-anchor="middle" x="163.5" y="-387.5" font-family="Helvetica,sans-Serif" font-size="10.00">TestDropShadowControl</text>
</a>
</g>
</g>
<!-- Node1&#45;&gt;Node39 -->
<g id="edge38" class="edge"><title>Node1&#45;&gt;Node39</title>
<path fill="none" stroke="midnightblue" d="M28.004,-762.253C30.1787,-692.859 40.9683,-461.538 89,-409 92.4683,-405.206 96.5857,-402.128 101.074,-399.634"/>
<polygon fill="midnightblue" stroke="midnightblue" points="24.5047,-762.182 27.7159,-772.279 31.5018,-762.383 24.5047,-762.182"/>
</g>
<!-- Node40 -->
<g id="node40" class="node"><title>Node40</title>
<g id="a_node40"><a xlink:href="class_test_flex_box_control.html" target="_top" xlink:title="Control to test IGraphicsFlexBox. ">
<polygon fill="white" stroke="black" points="110,-342.5 110,-361.5 217,-361.5 217,-342.5 110,-342.5"/>
<text text-anchor="middle" x="163.5" y="-349.5" font-family="Helvetica,sans-Serif" font-size="10.00">TestFlexBoxControl</text>
</a>
</g>
</g>
<!-- Node1&#45;&gt;Node40 -->
<g id="edge39" class="edge"><title>Node1&#45;&gt;Node40</title>
<path fill="none" stroke="midnightblue" d="M27.6723,-762.197C28.7234,-688.265 36.178,-429.648 89,-371 94.5569,-364.83 101.83,-360.546 109.638,-357.594"/>
<polygon fill="midnightblue" stroke="midnightblue" points="24.1701,-762.377 27.5526,-772.418 31.1696,-762.459 24.1701,-762.377"/>
</g>
<!-- Node41 -->
<g id="node41" class="node"><title>Node41</title>
<g id="a_node41"><a xlink:href="class_test_font_control.html" target="_top" xlink:title="Control to test drawing fonts. ">
<polygon fill="white" stroke="black" points="118,-304.5 118,-323.5 209,-323.5 209,-304.5 118,-304.5"/>
<text text-anchor="middle" x="163.5" y="-311.5" font-family="Helvetica,sans-Serif" font-size="10.00">TestFontControl</text>
</a>
</g>
</g>
<!-- Node1&#45;&gt;Node41 -->
<g id="edge40" class="edge"><title>Node1&#45;&gt;Node41</title>
<path fill="none" stroke="midnightblue" d="M27.394,-761.907C27.3958,-683.294 31.4282,-397.725 89,-333 96.4456,-324.629 107.05,-319.723 117.894,-316.903"/>
<polygon fill="midnightblue" stroke="midnightblue" points="23.8949,-762.328 27.4189,-772.32 30.8949,-762.311 23.8949,-762.328"/>
</g>
<!-- Node42 -->
<g id="node42" class="node"><title>Node42</title>
<g id="a_node42"><a xlink:href="class_test_g_l_control.html" target="_top" xlink:title="TestGLControl">
<polygon fill="white" stroke="black" points="122,-266.5 122,-285.5 205,-285.5 205,-266.5 122,-266.5"/>
<text text-anchor="middle" x="163.5" y="-273.5" font-family="Helvetica,sans-Serif" font-size="10.00">TestGLControl</text>
</a>
</g>
</g>
<!-- Node1&#45;&gt;Node42 -->
<g id="edge41" class="edge"><title>Node1&#45;&gt;Node42</title>
<path fill="none" stroke="midnightblue" d="M27.1568,-762.078C26.1511,-679.608 26.5517,-365.954 89,-295 97.2723,-285.601 109.527,-280.561 121.669,-277.94"/>
<polygon fill="midnightblue" stroke="midnightblue" points="23.6606,-762.374 27.3049,-772.322 30.6599,-762.272 23.6606,-762.374"/>
</g>
<!-- Node43 -->
<g id="node43" class="node"><title>Node43</title>
<g id="a_node43"><a xlink:href="class_test_image_control.html" target="_top" xlink:title="Control to test drawing bitmaps. ">
<polygon fill="white" stroke="black" points="113.5,-228.5 113.5,-247.5 213.5,-247.5 213.5,-228.5 113.5,-228.5"/>
<text text-anchor="middle" x="163.5" y="-235.5" font-family="Helvetica,sans-Serif" font-size="10.00">TestImageControl</text>
</a>
</g>
</g>
<!-- Node1&#45;&gt;Node43 -->
<g id="edge42" class="edge"><title>Node1&#45;&gt;Node43</title>
<path fill="none" stroke="midnightblue" d="M28.502,-762.338C33.2983,-671.577 55.0883,-295.882 89,-257 95.324,-249.749 104.018,-245.088 113.216,-242.13"/>
<polygon fill="midnightblue" stroke="midnightblue" points="25.0044,-762.203 27.9802,-772.371 31.9949,-762.566 25.0044,-762.203"/>
</g>
<!-- Node44 -->
<g id="node44" class="node"><title>Node44</title>
<g id="a_node44"><a xlink:href="class_test_keyboard_control.html" target="_top" xlink:title="Control to test keyboard input. ">
<polygon fill="white" stroke="black" points="106.5,-190.5 106.5,-209.5 220.5,-209.5 220.5,-190.5 106.5,-190.5"/>
<text text-anchor="middle" x="163.5" y="-197.5" font-family="Helvetica,sans-Serif" font-size="10.00">TestKeyboardControl</text>
</a>
</g>
</g>
<!-- Node1&#45;&gt;Node44 -->
<g id="edge43" class="edge"><title>Node1&#45;&gt;Node44</title>
<path fill="none" stroke="midnightblue" d="M28.3482,-762.121C32.5817,-666.978 52.6778,-260.976 89,-219 93.7433,-213.518 99.8411,-209.515 106.492,-206.608"/>
<polygon fill="midnightblue" stroke="midnightblue" points="24.8505,-761.995 27.9106,-772.138 31.8439,-762.3 24.8505,-761.995"/>
</g>
<!-- Node45 -->
<g id="node45" class="node"><title>Node45</title>
<g id="a_node45"><a xlink:href="class_test_m_p_s_control.html" target="_top" xlink:title="TestMPSControl">
<polygon fill="white" stroke="black" points="118,-152.5 118,-171.5 209,-171.5 209,-152.5 118,-152.5"/>
<text text-anchor="middle" x="163.5" y="-159.5" font-family="Helvetica,sans-Serif" font-size="10.00">TestMPSControl</text>
</a>
</g>
</g>
<!-- Node1&#45;&gt;Node45 -->
<g id="edge44" class="edge"><title>Node1&#45;&gt;Node45</title>
<path fill="none" stroke="midnightblue" d="M28.1948,-762.363C31.8532,-663.821 50.2037,-226.146 89,-181 96.3016,-172.503 106.857,-167.554 117.702,-164.734"/>
<polygon fill="midnightblue" stroke="midnightblue" points="24.6946,-762.307 27.8289,-772.428 31.69,-762.562 24.6946,-762.307"/>
</g>
<!-- Node46 -->
<g id="node46" class="node"><title>Node46</title>
<g id="a_node46"><a xlink:href="class_test_shadow_gradient_control.html" target="_top" xlink:title="Control to test drawing shadows with gradients. ">
<polygon fill="white" stroke="black" points="89,-114.5 89,-133.5 238,-133.5 238,-114.5 89,-114.5"/>
<text text-anchor="middle" x="163.5" y="-121.5" font-family="Helvetica,sans-Serif" font-size="10.00">TestShadowGradientControl</text>
</a>
</g>
</g>
<!-- Node1&#45;&gt;Node46 -->
<g id="edge45" class="edge"><title>Node1&#45;&gt;Node46</title>
<path fill="none" stroke="midnightblue" d="M28.0769,-762.1C31.2322,-659.293 47.7913,-191.246 89,-143 92.2528,-139.192 96.1594,-136.095 100.454,-133.584"/>
<polygon fill="midnightblue" stroke="midnightblue" points="24.572,-762.214 27.7712,-772.314 31.5689,-762.423 24.572,-762.214"/>
</g>
<!-- Node47 -->
<g id="node47" class="node"><title>Node47</title>
<g id="a_node47"><a xlink:href="class_test_size_control.html" target="_top" xlink:title="Control to display the size of a region. ">
<polygon fill="white" stroke="black" points="118.5,-76.5 118.5,-95.5 208.5,-95.5 208.5,-76.5 118.5,-76.5"/>
<text text-anchor="middle" x="163.5" y="-83.5" font-family="Helvetica,sans-Serif" font-size="10.00">TestSizeControl</text>
</a>
</g>
</g>
<!-- Node1&#45;&gt;Node47 -->
<g id="edge46" class="edge"><title>Node1&#45;&gt;Node47</title>
<path fill="none" stroke="midnightblue" d="M27.9677,-761.932C30.6337,-655.125 45.3633,-156.367 89,-105 96.4238,-96.2611 107.291,-91.2676 118.403,-88.483"/>
<polygon fill="midnightblue" stroke="midnightblue" points="24.4611,-762.165 27.7179,-772.247 31.4591,-762.334 24.4611,-762.165"/>
</g>
<!-- Node48 -->
<g id="node48" class="node"><title>Node48</title>
<g id="a_node48"><a xlink:href="class_test_s_v_g_control.html" target="_top" xlink:title="Control to test drawing SVGs. ">
<polygon fill="white" stroke="black" points="118,-38.5 118,-57.5 209,-57.5 209,-38.5 118,-38.5"/>
<text text-anchor="middle" x="163.5" y="-45.5" font-family="Helvetica,sans-Serif" font-size="10.00">TestSVGControl</text>
</a>
</g>
</g>
<!-- Node1&#45;&gt;Node48 -->
<g id="edge47" class="edge"><title>Node1&#45;&gt;Node48</title>
<path fill="none" stroke="midnightblue" d="M27.8601,-762.201C30.031,-652.434 42.8715,-121.564 89,-67 96.3177,-58.344 107.014,-53.3596 117.992,-50.5567"/>
<polygon fill="midnightblue" stroke="midnightblue" points="24.3555,-762.414 27.6642,-772.479 31.3542,-762.548 24.3555,-762.414"/>
</g>
<!-- Node49 -->
<g id="node49" class="node"><title>Node49</title>
<g id="a_node49"><a xlink:href="class_test_text_control.html" target="_top" xlink:title="Control to test drawing text. ">
<polygon fill="white" stroke="black" points="119,-0.5 119,-19.5 208,-19.5 208,-0.5 119,-0.5"/>
<text text-anchor="middle" x="163.5" y="-7.5" font-family="Helvetica,sans-Serif" font-size="10.00">TestTextControl</text>
</a>
</g>
</g>
<!-- Node1&#45;&gt;Node49 -->
<g id="edge48" class="edge"><title>Node1&#45;&gt;Node49</title>
<path fill="none" stroke="midnightblue" d="M27.7692,-762.206C29.4833,-649.012 40.4123,-86.725 89,-29 96.4688,-20.1266 107.488,-15.1086 118.734,-12.3438"/>
<polygon fill="midnightblue" stroke="midnightblue" points="24.2691,-762.191 27.624,-772.241 31.2684,-762.293 24.2691,-762.191"/>
</g>
<!-- Node6 -->
<g id="node6" class="node"><title>Node6</title>
<g id="a_node6"><a xlink:href="class_i_b_button_control.html" target="_top" xlink:title="A bitmap button/momentary switch control. ">
<polygon fill="white" stroke="black" points="287,-1456.5 287,-1475.5 379,-1475.5 379,-1456.5 287,-1456.5"/>
<text text-anchor="middle" x="333" y="-1463.5" font-family="Helvetica,sans-Serif" font-size="10.00">IBButtonControl</text>
</a>
</g>
</g>
<!-- Node5&#45;&gt;Node6 -->
<g id="edge5" class="edge"><title>Node5&#45;&gt;Node6</title>
<path fill="none" stroke="midnightblue" d="M216.62,-1439.82C240.235,-1445.18 267.782,-1451.43 290.037,-1456.48"/>
<polygon fill="midnightblue" stroke="midnightblue" points="217.294,-1436.39 206.767,-1437.59 215.745,-1443.21 217.294,-1436.39"/>
</g>
<!-- Node7 -->
<g id="node7" class="node"><title>Node7</title>
<g id="a_node7"><a xlink:href="class_i_s_v_g_button_control.html" target="_top" xlink:title="A vector button/momentary switch control which shows two SVG states. ">
<polygon fill="white" stroke="black" points="279.5,-1418.5 279.5,-1437.5 386.5,-1437.5 386.5,-1418.5 279.5,-1418.5"/>
<text text-anchor="middle" x="333" y="-1425.5" font-family="Helvetica,sans-Serif" font-size="10.00">ISVGButtonControl</text>
</a>
</g>
</g>
<!-- Node5&#45;&gt;Node7 -->
<g id="edge6" class="edge"><title>Node5&#45;&gt;Node7</title>
<path fill="none" stroke="midnightblue" d="M229.069,-1428C245.691,-1428 263.379,-1428 279.317,-1428"/>
<polygon fill="midnightblue" stroke="midnightblue" points="228.882,-1424.5 218.882,-1428 228.882,-1431.5 228.882,-1424.5"/>
</g>
<!-- Node8 -->
<g id="node8" class="node"><title>Node8</title>
<g id="a_node8"><a xlink:href="class_i_v_button_control.html" target="_top" xlink:title="A vector button/momentary switch control. ">
<polygon fill="white" stroke="black" points="287,-1380.5 287,-1399.5 379,-1399.5 379,-1380.5 287,-1380.5"/>
<text text-anchor="middle" x="333" y="-1387.5" font-family="Helvetica,sans-Serif" font-size="10.00">IVButtonControl</text>
</a>
</g>
</g>
<!-- Node5&#45;&gt;Node8 -->
<g id="edge7" class="edge"><title>Node5&#45;&gt;Node8</title>
<path fill="none" stroke="midnightblue" d="M216.62,-1416.18C240.235,-1410.82 267.782,-1404.57 290.037,-1399.52"/>
<polygon fill="midnightblue" stroke="midnightblue" points="215.745,-1412.79 206.767,-1418.41 217.294,-1419.61 215.745,-1412.79"/>
</g>
<!-- Node12 -->
<g id="node12" class="node"><title>Node12</title>
<g id="a_node12"><a xlink:href="class_test_dir_browse_control.html" target="_top" xlink:title="Control to test IDirBrowseControlBase. ">
<polygon fill="white" stroke="black" points="274,-1304.5 274,-1323.5 392,-1323.5 392,-1304.5 274,-1304.5"/>
<text text-anchor="middle" x="333" y="-1311.5" font-family="Helvetica,sans-Serif" font-size="10.00">TestDirBrowseControl</text>
</a>
</g>
</g>
<!-- Node11&#45;&gt;Node12 -->
<g id="edge11" class="edge"><title>Node11&#45;&gt;Node12</title>
<path fill="none" stroke="midnightblue" d="M236.739,-1314C249.179,-1314 261.965,-1314 273.97,-1314"/>
<polygon fill="midnightblue" stroke="midnightblue" points="236.395,-1310.5 226.395,-1314 236.395,-1317.5 236.395,-1310.5"/>
</g>
<!-- Node16 -->
<g id="node16" class="node"><title>Node16</title>
<g id="a_node16"><a xlink:href="class_i_b_knob_control.html" target="_top" xlink:title="A bitmap knob/dial control that draws a frame from a stacked bitmap. ">
<polygon fill="white" stroke="red" points="291,-1228.5 291,-1247.5 375,-1247.5 375,-1228.5 291,-1228.5"/>
<text text-anchor="middle" x="333" y="-1235.5" font-family="Helvetica,sans-Serif" font-size="10.00">IBKnobControl</text>
</a>
</g>
</g>
<!-- Node15&#45;&gt;Node16 -->
<g id="edge15" class="edge"><title>Node15&#45;&gt;Node16</title>
<path fill="none" stroke="midnightblue" d="M216.736,-1211.85C240.632,-1217.27 268.537,-1223.6 290.904,-1228.68"/>
<polygon fill="midnightblue" stroke="midnightblue" points="217.294,-1208.39 206.767,-1209.59 215.745,-1215.21 217.294,-1208.39"/>
</g>
<!-- Node17 -->
<g id="node17" class="node"><title>Node17</title>
<g id="a_node17"><a xlink:href="class_i_s_v_g_knob_control.html" target="_top" xlink:title="A vector knob/dial control which rotates an SVG image. ">
<polygon fill="white" stroke="black" points="284,-1190.5 284,-1209.5 382,-1209.5 382,-1190.5 284,-1190.5"/>
<text text-anchor="middle" x="333" y="-1197.5" font-family="Helvetica,sans-Serif" font-size="10.00">ISVGKnobControl</text>
</a>
</g>
</g>
<!-- Node15&#45;&gt;Node17 -->
<g id="edge16" class="edge"><title>Node15&#45;&gt;Node17</title>
<path fill="none" stroke="midnightblue" d="M224.316,-1200C243.845,-1200 265.269,-1200 283.829,-1200"/>
<polygon fill="midnightblue" stroke="midnightblue" points="224.302,-1196.5 214.302,-1200 224.302,-1203.5 224.302,-1196.5"/>
</g>
<!-- Node18 -->
<g id="node18" class="node"><title>Node18</title>
<g id="a_node18"><a xlink:href="class_i_v_knob_control.html" target="_top" xlink:title="A vector knob control drawn using graphics primitves. ">
<polygon fill="white" stroke="black" points="291,-1152.5 291,-1171.5 375,-1171.5 375,-1152.5 291,-1152.5"/>
<text text-anchor="middle" x="333" y="-1159.5" font-family="Helvetica,sans-Serif" font-size="10.00">IVKnobControl</text>
</a>
</g>
</g>
<!-- Node15&#45;&gt;Node18 -->
<g id="edge17" class="edge"><title>Node15&#45;&gt;Node18</title>
<path fill="none" stroke="midnightblue" d="M216.736,-1188.15C240.632,-1182.73 268.537,-1176.4 290.904,-1171.32"/>
<polygon fill="midnightblue" stroke="midnightblue" points="215.745,-1184.79 206.767,-1190.41 217.294,-1191.61 215.745,-1184.79"/>
</g>
</g>
</svg>
