<?xml version="1.0" encoding="UTF-8" standalone="no"?>
<!DOCTYPE svg PUBLIC "-//W3C//DTD SVG 1.1//EN"
 "http://www.w3.org/Graphics/SVG/1.1/DTD/svg11.dtd">
<!-- Generated by graphviz version 2.38.0 (20140413.2041)
 -->
<!-- Title: Graphical Class Hierarchy Pages: 1 -->
<svg width="756pt" height="590pt"
 viewBox="0.00 0.00 756.00 590.43" xmlns="http://www.w3.org/2000/svg" xmlns:xlink="http://www.w3.org/1999/xlink">
<g id="graph0" class="graph" transform="scale(1 1) rotate(0) translate(4 586.434)">
<title>Graphical Class Hierarchy</title>
<polygon fill="white" stroke="none" points="-4,4 -4,-586.434 752,-586.434 752,4 -4,4"/>
<!-- Node1 -->
<g id="node1" class="node"><title>Node1</title>
<polygon fill="white" stroke="#bfbfbf" points="304,-532.5 304,-551.5 430,-551.5 430,-532.5 304,-532.5"/>
<text text-anchor="middle" x="367" y="-539.5" font-family="Helvetica,sans-Serif" font-size="10.00">AAX_CIPlugParameters</text>
</g>
<!-- Node2 -->
<g id="node2" class="node"><title>Node2</title>
<g id="a_node2"><a xlink:href="class_i_plug_a_a_x.html" target="_top" xlink:title="AAX API base class for an IPlug plug&#45;in. ">
<polygon fill="white" stroke="black" points="504,-532.5 504,-551.5 563,-551.5 563,-532.5 504,-532.5"/>
<text text-anchor="middle" x="533.5" y="-539.5" font-family="Helvetica,sans-Serif" font-size="10.00">IPlugAAX</text>
</a>
</g>
</g>
<!-- Node1&#45;&gt;Node2 -->
<g id="edge1" class="edge"><title>Node1&#45;&gt;Node2</title>
<path fill="none" stroke="midnightblue" d="M440.387,-542C462.783,-542 486.169,-542 503.773,-542"/>
<polygon fill="midnightblue" stroke="midnightblue" points="440.19,-538.5 430.19,-542 440.19,-545.5 440.19,-538.5"/>
</g>
<!-- Node3 -->
<g id="node3" class="node"><title>Node3</title>
<polygon fill="white" stroke="#bfbfbf" points="498,-76.5 498,-95.5 569,-95.5 569,-76.5 498,-76.5"/>
<text text-anchor="middle" x="533.5" y="-83.5" font-family="Helvetica,sans-Serif" font-size="10.00">AudioEffect</text>
</g>
<!-- Node4 -->
<g id="node4" class="node"><title>Node4</title>
<g id="a_node4"><a xlink:href="class_i_plug_v_s_t3_processor.html" target="_top" xlink:title="VST3 Processor API&#45;base class for a distributed IPlug VST3 plug&#45;in. ">
<polygon fill="white" stroke="black" points="637,-114.5 637,-133.5 748,-133.5 748,-114.5 637,-114.5"/>
<text text-anchor="middle" x="692.5" y="-121.5" font-family="Helvetica,sans-Serif" font-size="10.00">IPlugVST3Processor</text>
</a>
</g>
</g>
<!-- Node3&#45;&gt;Node4 -->
<g id="edge2" class="edge"><title>Node3&#45;&gt;Node4</title>
<path fill="none" stroke="midnightblue" d="M579.192,-96.8171C602.156,-102.375 629.893,-109.089 652.056,-114.453"/>
<polygon fill="midnightblue" stroke="midnightblue" points="579.886,-93.3842 569.343,-94.4334 578.239,-100.188 579.886,-93.3842"/>
</g>
<!-- Node5 -->
<g id="node5" class="node"><title>Node5</title>
<polygon fill="white" stroke="#bfbfbf" points="484.5,-494.5 484.5,-513.5 582.5,-513.5 582.5,-494.5 484.5,-494.5"/>
<text text-anchor="middle" x="533.5" y="-501.5" font-family="Helvetica,sans-Serif" font-size="10.00">EditControllerEx1</text>
</g>
<!-- Node6 -->
<g id="node6" class="node"><title>Node6</title>
<g id="a_node6"><a xlink:href="class_i_plug_v_s_t3_controller.html" target="_top" xlink:title="VST3 Controller API&#45;base class for a distributed IPlug VST3 plug&#45;in. ">
<polygon fill="white" stroke="black" points="637.5,-475.5 637.5,-494.5 747.5,-494.5 747.5,-475.5 637.5,-475.5"/>
<text text-anchor="middle" x="692.5" y="-482.5" font-family="Helvetica,sans-Serif" font-size="10.00">IPlugVST3Controller</text>
</a>
</g>
</g>
<!-- Node5&#45;&gt;Node6 -->
<g id="edge3" class="edge"><title>Node5&#45;&gt;Node6</title>
<path fill="none" stroke="midnightblue" d="M593.199,-496.896C607.637,-495.149 623.03,-493.286 637.247,-491.566"/>
<polygon fill="midnightblue" stroke="midnightblue" points="592.393,-493.468 582.886,-498.144 593.234,-500.417 592.393,-493.468"/>
</g>
<!-- Node7 -->
<g id="node7" class="node"><title>Node7</title>
<polygon fill="white" stroke="#bfbfbf" points="0,-228.5 0,-247.5 143,-247.5 143,-228.5 0,-228.5"/>
<text text-anchor="middle" x="71.5" y="-235.5" font-family="Helvetica,sans-Serif" font-size="10.00">EDITOR_DELEGATE_CLASS</text>
</g>
<!-- Node8 -->
<g id="node8" class="node"><title>Node8</title>
<g id="a_node8"><a xlink:href="class_i_plugin_base.html" target="_top" xlink:title="Base class that contains plug&#45;in info and state manipulation methods. ">
<polygon fill="white" stroke="black" points="188,-247.5 188,-266.5 259,-266.5 259,-247.5 188,-247.5"/>
<text text-anchor="middle" x="223.5" y="-254.5" font-family="Helvetica,sans-Serif" font-size="10.00">IPluginBase</text>
</a>
</g>
</g>
<!-- Node7&#45;&gt;Node8 -->
<g id="edge4" class="edge"><title>Node7&#45;&gt;Node8</title>
<path fill="none" stroke="midnightblue" d="M153.289,-248.233C165.385,-249.765 177.28,-251.272 187.704,-252.593"/>
<polygon fill="midnightblue" stroke="midnightblue" points="153.468,-244.728 143.108,-246.944 152.589,-251.673 153.468,-244.728"/>
</g>
<!-- Node18 -->
<g id="node18" class="node"><title>Node18</title>
<g id="a_node18"><a xlink:href="class_reaper_ext_base.html" target="_top" xlink:title="ReaperExtBase">
<polygon fill="white" stroke="black" points="179,-209.5 179,-228.5 268,-228.5 268,-209.5 179,-209.5"/>
<text text-anchor="middle" x="223.5" y="-216.5" font-family="Helvetica,sans-Serif" font-size="10.00">ReaperExtBase</text>
</a>
</g>
</g>
<!-- Node7&#45;&gt;Node18 -->
<g id="edge17" class="edge"><title>Node7&#45;&gt;Node18</title>
<path fill="none" stroke="midnightblue" d="M153.089,-227.792C161.915,-226.674 170.636,-225.569 178.761,-224.54"/>
<polygon fill="midnightblue" stroke="midnightblue" points="152.589,-224.327 143.108,-229.056 153.468,-231.272 152.589,-224.327"/>
</g>
<!-- Node9 -->
<g id="node9" class="node"><title>Node9</title>
<g id="a_node9"><a xlink:href="class_i_plug_a_p_i_base.html" target="_top" xlink:title="The base class of an IPlug plug&#45;in, which interacts with the different plug&#45;in APIs. ">
<polygon fill="white" stroke="black" points="328,-247.5 328,-266.5 406,-266.5 406,-247.5 328,-247.5"/>
<text text-anchor="middle" x="367" y="-254.5" font-family="Helvetica,sans-Serif" font-size="10.00">IPlugAPIBase</text>
</a>
</g>
</g>
<!-- Node8&#45;&gt;Node9 -->
<g id="edge5" class="edge"><title>Node8&#45;&gt;Node9</title>
<path fill="none" stroke="midnightblue" d="M269.232,-257C288.044,-257 309.708,-257 327.762,-257"/>
<polygon fill="midnightblue" stroke="midnightblue" points="269.115,-253.5 259.115,-257 269.115,-260.5 269.115,-253.5"/>
</g>
<!-- Node9&#45;&gt;Node2 -->
<g id="edge6" class="edge"><title>Node9&#45;&gt;Node2</title>
<path fill="none" stroke="midnightblue" d="M369.369,-276.916C373.847,-326.174 392.358,-454.662 466,-523 476.21,-532.474 490.821,-537.264 503.748,-539.668"/>
<polygon fill="midnightblue" stroke="midnightblue" points="372.836,-276.354 368.542,-266.668 365.858,-276.918 372.836,-276.354"/>
</g>
<!-- Node9&#45;&gt;Node4 -->
<g id="edge14" class="edge"><title>Node9&#45;&gt;Node4</title>
<path fill="none" stroke="midnightblue" d="M412.809,-268.786C462.027,-279.165 541.916,-288.261 601,-257 652.101,-229.963 679.733,-159.691 688.439,-133.781"/>
<polygon fill="midnightblue" stroke="midnightblue" points="413.311,-265.313 402.791,-266.566 411.797,-272.147 413.311,-265.313"/>
</g>
<!-- Node9&#45;&gt;Node6 -->
<g id="edge13" class="edge"><title>Node9&#45;&gt;Node6</title>
<path fill="none" stroke="midnightblue" d="M371.291,-276.708C382.042,-338.466 418.211,-526.195 466,-561 514.5,-596.323 544.623,-581.532 601,-561 637.822,-547.59 670.076,-511.884 684.081,-494.617"/>
<polygon fill="midnightblue" stroke="midnightblue" points="374.716,-275.975 369.582,-266.707 367.816,-277.154 374.716,-275.975"/>
</g>
<!-- Node10 -->
<g id="node10" class="node"><title>Node10</title>
<g id="a_node10"><a xlink:href="class_i_plug_a_p_p.html" target="_top" xlink:title="Standalone application base class for an IPlug plug&#45;in. ">
<polygon fill="white" stroke="black" points="504.5,-228.5 504.5,-247.5 562.5,-247.5 562.5,-228.5 504.5,-228.5"/>
<text text-anchor="middle" x="533.5" y="-235.5" font-family="Helvetica,sans-Serif" font-size="10.00">IPlugAPP</text>
</a>
</g>
</g>
<!-- Node9&#45;&gt;Node10 -->
<g id="edge7" class="edge"><title>Node9&#45;&gt;Node10</title>
<path fill="none" stroke="midnightblue" d="M416.36,-251.414C444.968,-248.11 480.205,-244.04 504.315,-241.255"/>
<polygon fill="midnightblue" stroke="midnightblue" points="415.685,-247.969 406.153,-252.593 416.489,-254.923 415.685,-247.969"/>
</g>
<!-- Node11 -->
<g id="node11" class="node"><title>Node11</title>
<g id="a_node11"><a xlink:href="class_i_plug_a_u.html" target="_top" xlink:title="AudioUnit v2 API base class for an IPlug plug&#45;in. ">
<polygon fill="white" stroke="black" points="507,-190.5 507,-209.5 560,-209.5 560,-190.5 507,-190.5"/>
<text text-anchor="middle" x="533.5" y="-197.5" font-family="Helvetica,sans-Serif" font-size="10.00">IPlugAU</text>
</a>
</g>
</g>
<!-- Node9&#45;&gt;Node11 -->
<g id="edge8" class="edge"><title>Node9&#45;&gt;Node11</title>
<path fill="none" stroke="midnightblue" d="M400.134,-243.684C419.134,-236.025 443.757,-226.472 466,-219 479.317,-214.526 494.352,-210.173 506.753,-206.765"/>
<polygon fill="midnightblue" stroke="midnightblue" points="398.7,-240.488 390.753,-247.495 401.335,-246.973 398.7,-240.488"/>
</g>
<!-- Node12 -->
<g id="node12" class="node"><title>Node12</title>
<g id="a_node12"><a xlink:href="class_i_plug_a_uv3.html" target="_top" xlink:title="AudioUnit v3 API base class for an IPlug plug&#45;in. ">
<polygon fill="white" stroke="black" points="501,-152.5 501,-171.5 566,-171.5 566,-152.5 501,-152.5"/>
<text text-anchor="middle" x="533.5" y="-159.5" font-family="Helvetica,sans-Serif" font-size="10.00">IPlugAUv3</text>
</a>
</g>
</g>
<!-- Node9&#45;&gt;Node12 -->
<g id="edge9" class="edge"><title>Node9&#45;&gt;Node12</title>
<path fill="none" stroke="midnightblue" d="M385.045,-240.444C403.564,-223.301 434.714,-196.851 466,-181 476.818,-175.519 489.451,-171.405 500.783,-168.433"/>
<polygon fill="midnightblue" stroke="midnightblue" points="382.566,-237.971 377.693,-247.379 387.369,-243.063 382.566,-237.971"/>
</g>
<!-- Node13 -->
<g id="node13" class="node"><title>Node13</title>
<g id="a_node13"><a xlink:href="class_i_plug_v_s_t2.html" target="_top" xlink:title="VST2.4 API base class for an IPlug plug&#45;in. ">
<polygon fill="white" stroke="black" points="501.5,-38.5 501.5,-57.5 565.5,-57.5 565.5,-38.5 501.5,-38.5"/>
<text text-anchor="middle" x="533.5" y="-45.5" font-family="Helvetica,sans-Serif" font-size="10.00">IPlugVST2</text>
</a>
</g>
</g>
<!-- Node9&#45;&gt;Node13 -->
<g id="edge10" class="edge"><title>Node9&#45;&gt;Node13</title>
<path fill="none" stroke="midnightblue" d="M385.261,-239.821C399.048,-225.26 417.986,-203.25 430,-181 455.244,-134.247 427.915,-104.049 466,-67 475.381,-57.874 488.829,-53.0749 501.181,-50.5725"/>
<polygon fill="midnightblue" stroke="midnightblue" points="382.654,-237.482 378.208,-247.099 387.681,-242.353 382.654,-237.482"/>
</g>
<!-- Node15 -->
<g id="node15" class="node"><title>Node15</title>
<g id="a_node15"><a xlink:href="class_i_plug_v_s_t3.html" target="_top" xlink:title="VST3 base class for a non&#45;distributed IPlug VST3 plug&#45;in. ">
<polygon fill="white" stroke="black" points="660.5,-361.5 660.5,-380.5 724.5,-380.5 724.5,-361.5 660.5,-361.5"/>
<text text-anchor="middle" x="692.5" y="-368.5" font-family="Helvetica,sans-Serif" font-size="10.00">IPlugVST3</text>
</a>
</g>
</g>
<!-- Node9&#45;&gt;Node15 -->
<g id="edge12" class="edge"><title>Node9&#45;&gt;Node15</title>
<path fill="none" stroke="midnightblue" d="M377.494,-275.992C392.199,-303.001 423.304,-351.4 466,-371 529.865,-400.318 615.035,-388.522 660.234,-378.854"/>
<polygon fill="midnightblue" stroke="midnightblue" points="380.414,-274.025 372.671,-266.793 374.214,-277.275 380.414,-274.025"/>
</g>
<!-- Node16 -->
<g id="node16" class="node"><title>Node16</title>
<g id="a_node16"><a xlink:href="class_i_plug_w_a_m.html" target="_top" xlink:title="WebAudioModule (WAM) API base class. ">
<polygon fill="white" stroke="black" points="502.5,-0.5 502.5,-19.5 564.5,-19.5 564.5,-0.5 502.5,-0.5"/>
<text text-anchor="middle" x="533.5" y="-7.5" font-family="Helvetica,sans-Serif" font-size="10.00">IPlugWAM</text>
</a>
</g>
</g>
<!-- Node9&#45;&gt;Node16 -->
<g id="edge15" class="edge"><title>Node9&#45;&gt;Node16</title>
<path fill="none" stroke="midnightblue" d="M385.697,-240.046C399.739,-225.617 418.81,-203.676 430,-181 460.723,-118.744 418.045,-79.2003 466,-29 475.372,-19.189 489.427,-14.3374 502.205,-11.9784"/>
<polygon fill="midnightblue" stroke="midnightblue" points="383.092,-237.701 378.494,-247.247 388.041,-242.652 383.092,-237.701"/>
</g>
<!-- Node17 -->
<g id="node17" class="node"><title>Node17</title>
<g id="a_node17"><a xlink:href="class_i_plug_web.html" target="_top" xlink:title="This is used for the UI &quot;editor&quot; &#45; controller side of a WAM or remote editors that communicate with d...">
<polygon fill="white" stroke="black" points="504,-304.5 504,-323.5 563,-323.5 563,-304.5 504,-304.5"/>
<text text-anchor="middle" x="533.5" y="-311.5" font-family="Helvetica,sans-Serif" font-size="10.00">IPlugWeb</text>
</a>
</g>
</g>
<!-- Node9&#45;&gt;Node17 -->
<g id="edge16" class="edge"><title>Node9&#45;&gt;Node17</title>
<path fill="none" stroke="midnightblue" d="M405.311,-269.928C435.579,-280.416 477.563,-294.964 504.877,-304.428"/>
<polygon fill="midnightblue" stroke="midnightblue" points="406.128,-266.508 395.534,-266.541 403.836,-273.122 406.128,-266.508"/>
</g>
<!-- Node14 -->
<g id="node14" class="node"><title>Node14</title>
<g id="a_node14"><a xlink:href="class_i_plug_reaper_v_s_t2.html" target="_top" xlink:title="Reaper specific VST2.4 API base class for an IPlug plug&#45;in. ">
<polygon fill="white" stroke="black" points="644,-38.5 644,-57.5 741,-57.5 741,-38.5 644,-38.5"/>
<text text-anchor="middle" x="692.5" y="-45.5" font-family="Helvetica,sans-Serif" font-size="10.00">IPlugReaperVST2</text>
</a>
</g>
</g>
<!-- Node13&#45;&gt;Node14 -->
<g id="edge11" class="edge"><title>Node13&#45;&gt;Node14</title>
<path fill="none" stroke="midnightblue" d="M575.68,-48C596.586,-48 622.094,-48 643.845,-48"/>
<polygon fill="midnightblue" stroke="midnightblue" points="575.518,-44.5001 565.518,-48 575.518,-51.5001 575.518,-44.5001"/>
</g>
<!-- Node19 -->
<g id="node19" class="node"><title>Node19</title>
<polygon fill="white" stroke="#bfbfbf" points="494.5,-456.5 494.5,-475.5 572.5,-475.5 572.5,-456.5 494.5,-456.5"/>
<text text-anchor="middle" x="533.5" y="-463.5" font-family="Helvetica,sans-Serif" font-size="10.00">IMidiMapping</text>
</g>
<!-- Node19&#45;&gt;Node6 -->
<g id="edge18" class="edge"><title>Node19&#45;&gt;Node6</title>
<path fill="none" stroke="midnightblue" d="M582.886,-471.856C600.089,-473.938 619.566,-476.295 637.229,-478.432"/>
<polygon fill="midnightblue" stroke="midnightblue" points="582.853,-468.326 572.505,-470.599 582.012,-475.276 582.853,-468.326"/>
</g>
<!-- Node20 -->
<g id="node20" class="node"><title>Node20</title>
<g id="a_node20"><a xlink:href="class_i_plug_processor.html" target="_top" xlink:title="The base class for IPlug Audio Processing. ">
<polygon fill="white" stroke="black" points="324,-152.5 324,-171.5 410,-171.5 410,-152.5 324,-152.5"/>
<text text-anchor="middle" x="367" y="-159.5" font-family="Helvetica,sans-Serif" font-size="10.00">IPlugProcessor</text>
</a>
</g>
</g>
<!-- Node20&#45;&gt;Node2 -->
<g id="edge19" class="edge"><title>Node20&#45;&gt;Node2</title>
<path fill="none" stroke="midnightblue" d="M386.346,-178.654C400.77,-192.908 420.037,-214.759 430,-238 480.302,-355.346 382.868,-426.1 466,-523 475.304,-533.844 490.327,-538.712 503.742,-540.817"/>
<polygon fill="midnightblue" stroke="midnightblue" points="388.568,-175.936 378.921,-171.557 383.731,-180.997 388.568,-175.936"/>
</g>
<!-- Node20&#45;&gt;Node10 -->
<g id="edge20" class="edge"><title>Node20&#45;&gt;Node10</title>
<path fill="none" stroke="midnightblue" d="M390.439,-177.223C409.778,-189.803 438.798,-207.417 466,-219 478.263,-224.221 492.393,-228.487 504.467,-231.644"/>
<polygon fill="midnightblue" stroke="midnightblue" points="392.298,-174.256 382.024,-171.668 388.442,-180.098 392.298,-174.256"/>
</g>
<!-- Node20&#45;&gt;Node11 -->
<g id="edge21" class="edge"><title>Node20&#45;&gt;Node11</title>
<path fill="none" stroke="midnightblue" d="M419.515,-173.9C448.589,-180.616 483.646,-188.715 506.921,-194.091"/>
<polygon fill="midnightblue" stroke="midnightblue" points="420.042,-170.43 409.51,-171.589 418.466,-177.25 420.042,-170.43"/>
</g>
<!-- Node20&#45;&gt;Node12 -->
<g id="edge22" class="edge"><title>Node20&#45;&gt;Node12</title>
<path fill="none" stroke="midnightblue" d="M420.614,-162C447.058,-162 478.221,-162 500.933,-162"/>
<polygon fill="midnightblue" stroke="midnightblue" points="420.363,-158.5 410.363,-162 420.363,-165.5 420.363,-158.5"/>
</g>
<!-- Node20&#45;&gt;Node13 -->
<g id="edge23" class="edge"><title>Node20&#45;&gt;Node13</title>
<path fill="none" stroke="midnightblue" d="M381.517,-144.386C398.833,-123.013 430.839,-87.3226 466,-67 476.811,-60.7511 489.814,-56.4437 501.442,-53.5316"/>
<polygon fill="midnightblue" stroke="midnightblue" points="378.693,-142.315 375.227,-152.327 384.18,-146.662 378.693,-142.315"/>
</g>
<!-- Node20&#45;&gt;Node16 -->
<g id="edge27" class="edge"><title>Node20&#45;&gt;Node16</title>
<path fill="none" stroke="midnightblue" d="M376.755,-143.207C391.205,-114.267 422.801,-59.0026 466,-29 476.651,-21.6028 490.151,-17.0654 502.2,-14.2914"/>
<polygon fill="midnightblue" stroke="midnightblue" points="373.579,-141.736 372.369,-152.261 379.879,-144.788 373.579,-141.736"/>
</g>
<!-- Node21 -->
<g id="node21" class="node"><title>Node21</title>
<g id="a_node21"><a xlink:href="class_i_plug_v_s_t3_processor_base.html" target="_top" xlink:title="Shared VST3 processor code. ">
<polygon fill="white" stroke="black" points="466,-114.5 466,-133.5 601,-133.5 601,-114.5 466,-114.5"/>
<text text-anchor="middle" x="533.5" y="-121.5" font-family="Helvetica,sans-Serif" font-size="10.00">IPlugVST3ProcessorBase</text>
</a>
</g>
</g>
<!-- Node20&#45;&gt;Node21 -->
<g id="edge24" class="edge"><title>Node20&#45;&gt;Node21</title>
<path fill="none" stroke="midnightblue" d="M419.497,-150.104C442.62,-144.763 469.53,-138.546 491.288,-133.52"/>
<polygon fill="midnightblue" stroke="midnightblue" points="418.466,-146.75 409.51,-152.411 420.042,-153.57 418.466,-146.75"/>
</g>
<!-- Node21&#45;&gt;Node4 -->
<g id="edge26" class="edge"><title>Node21&#45;&gt;Node4</title>
<path fill="none" stroke="midnightblue" d="M611.159,-124C619.776,-124 628.422,-124 636.682,-124"/>
<polygon fill="midnightblue" stroke="midnightblue" points="611.082,-120.5 601.082,-124 611.082,-127.5 611.082,-120.5"/>
</g>
<!-- Node21&#45;&gt;Node15 -->
<g id="edge25" class="edge"><title>Node21&#45;&gt;Node15</title>
<path fill="none" stroke="midnightblue" d="M595.457,-138.663C597.407,-139.987 599.264,-141.429 601,-143 669.518,-205.015 686.903,-325.718 690.609,-361.055"/>
<polygon fill="midnightblue" stroke="midnightblue" points="596.835,-135.423 586.4,-133.587 593.412,-141.53 596.835,-135.423"/>
</g>
<!-- Node22 -->
<g id="node22" class="node"><title>Node22</title>
<g id="a_node22"><a xlink:href="class_i_plug_v_s_t3_controller_base.html" target="_top" xlink:title="Shared VST3 controller code. ">
<polygon fill="white" stroke="black" points="466.5,-418.5 466.5,-437.5 600.5,-437.5 600.5,-418.5 466.5,-418.5"/>
<text text-anchor="middle" x="533.5" y="-425.5" font-family="Helvetica,sans-Serif" font-size="10.00">IPlugVST3ControllerBase</text>
</a>
</g>
</g>
<!-- Node22&#45;&gt;Node6 -->
<g id="edge29" class="edge"><title>Node22&#45;&gt;Node6</title>
<path fill="none" stroke="midnightblue" d="M580.833,-440.469C587.638,-442.522 594.531,-444.727 601,-447 625.276,-455.531 652.4,-467.219 670.567,-475.371"/>
<polygon fill="midnightblue" stroke="midnightblue" points="581.567,-437.036 570.986,-437.578 579.595,-443.753 581.567,-437.036"/>
</g>
<!-- Node22&#45;&gt;Node15 -->
<g id="edge28" class="edge"><title>Node22&#45;&gt;Node15</title>
<path fill="none" stroke="midnightblue" d="M570.574,-415.005C580.441,-411.444 591.135,-407.579 601,-404 622.695,-396.13 647.299,-387.155 665.37,-380.554"/>
<polygon fill="midnightblue" stroke="midnightblue" points="569.261,-411.758 561.042,-418.444 571.636,-418.343 569.261,-411.758"/>
</g>
<!-- Node23 -->
<g id="node23" class="node"><title>Node23</title>
<polygon fill="white" stroke="#bfbfbf" points="335,-0.5 335,-19.5 399,-19.5 399,-0.5 335,-0.5"/>
<text text-anchor="middle" x="367" y="-7.5" font-family="Helvetica,sans-Serif" font-size="10.00">Processor</text>
</g>
<!-- Node23&#45;&gt;Node16 -->
<g id="edge30" class="edge"><title>Node23&#45;&gt;Node16</title>
<path fill="none" stroke="midnightblue" d="M409.539,-10C438.46,-10 476.362,-10 502.398,-10"/>
<polygon fill="midnightblue" stroke="midnightblue" points="409.328,-6.5001 399.328,-10 409.328,-13.5001 409.328,-6.5001"/>
</g>
<!-- Node24 -->
<g id="node24" class="node"><title>Node24</title>
<polygon fill="white" stroke="#bfbfbf" points="469,-342.5 469,-361.5 598,-361.5 598,-342.5 469,-342.5"/>
<text text-anchor="middle" x="533.5" y="-349.5" font-family="Helvetica,sans-Serif" font-size="10.00">SingleComponentEffect</text>
</g>
<!-- Node24&#45;&gt;Node15 -->
<g id="edge31" class="edge"><title>Node24&#45;&gt;Node15</title>
<path fill="none" stroke="midnightblue" d="M608.471,-360.952C626.781,-363.168 645.421,-365.424 660.388,-367.235"/>
<polygon fill="midnightblue" stroke="midnightblue" points="608.706,-357.455 598.358,-359.728 607.865,-364.404 608.706,-357.455"/>
</g>
</g>
</svg>
